<?xml version="1.0" encoding="UTF-8" standalone="no"?>
<svg xmlns="http://www.w3.org/2000/svg" width="800" height="400" viewBox="0 0 800 400">
  <!-- Background -->
  <rect width="800" height="400" fill="#f8fafc" />
  
  <!-- Main Container -->
  <rect x="20" y="20" width="760" height="360" rx="8" ry="8" fill="white" stroke="#e2e8f0" stroke-width="1" />
  
  <!-- Header Section -->
  <rect x="20" y="20" width="760" height="50" rx="8" ry="8" fill="#f1f5f9" stroke="#e2e8f0" stroke-width="1" />
  <text x="40" y="50" font-family="Arial" font-size="18" font-weight="bold" fill="#334155">Manutenção Corretiva</text>
  <rect x="620" y="30" width="140" height="30" rx="4" ry="4" fill="#3b82f6" />
  <text x="650" y="50" font-family="Arial" font-size="12" fill="white">Registrar Parada</text>
  
  <!-- Filter Bar -->
  <rect x="40" y="90" width="720" height="60" rx="6" ry="6" fill="#f8fafc" stroke="#e2e8f0" stroke-width="1" />
  <text x="60" y="115" font-family="Arial" font-size="14" fill="#64748b">Filtros:</text>
  
  <!-- Filter Elements -->
  <rect x="120" y="100" width="160" height="40" rx="4" ry="4" fill="white" stroke="#cbd5e1" stroke-width="1" />
  <text x="130" y="125" font-family="Arial" font-size="12" fill="#64748b">Equipamento: Todos</text>
  
  <rect x="300" y="100" width="120" height="40" rx="4" ry="4" fill="white" stroke="#cbd5e1" stroke-width="1" />
  <text x="310" y="125" font-family="Arial" font-size="12" fill="#64748b">Status: Todos</text>
  
  <rect x="440" y="100" width="120" height="40" rx="4" ry="4" fill="white" stroke="#cbd5e1" stroke-width="1" />
  <text x="450" y="125" font-family="Arial" font-size="12" fill="#64748b">Período: Anual</text>
  
  <!-- Table Header -->
  <rect x="40" y="170" width="720" height="40" rx="4" ry="4" fill="#f1f5f9" stroke="#e2e8f0" stroke-width="1" />
  <text x="60" y="195" font-family="Arial" font-size="12" font-weight="bold" fill="#334155">ID</text>
  <text x="120" y="195" font-family="Arial" font-size="12" font-weight="bold" fill="#334155">Equipamento</text>
  <text x="280" y="195" font-family="Arial" font-size="12" font-weight="bold" fill="#334155">Problema</text>
  <text x="440" y="195" font-family="Arial" font-size="12" font-weight="bold" fill="#334155">Data Início</text>
  <text x="550" y="195" font-family="Arial" font-size="12" font-weight="bold" fill="#334155">Status</text>
  <text x="650" y="195" font-family="Arial" font-size="12" font-weight="bold" fill="#334155">Ações</text>
  
  <!-- Table Rows -->
  <rect x="40" y="210" width="720" height="40" fill="white" stroke="#e2e8f0" stroke-width="1" />
  <text x="60" y="235" font-family="Arial" font-size="12" fill="#334155">1</text>
  <text x="120" y="235" font-family="Arial" font-size="12" fill="#334155">Bomba Hidráulica #3</text>
  <text x="280" y="235" font-family="Arial" font-size="12" fill="#334155">Vazamento</text>
  <text x="440" y="235" font-family="Arial" font-size="12" fill="#334155">12/04/2025</text>
  <rect x="550" y="220" width="80" height="20" rx="10" ry="10" fill="#fee2e2" />
  <text x="565" y="235" font-family="Arial" font-size="10" fill="#b91c1c">Pendente</text>
  <text x="650" y="235" font-family="Arial" font-size="12" fill="#3b82f6">Editar</text>
  <text x="700" y="235" font-family="Arial" font-size="12" fill="#ef4444">Excluir</text>
  
  <rect x="40" y="250" width="720" height="40" fill="#f8fafc" stroke="#e2e8f0" stroke-width="1" />
  <text x="60" y="275" font-family="Arial" font-size="12" fill="#334155">2</text>
  <text x="120" y="275" font-family="Arial" font-size="12" fill="#334155">Esteira #1</text>
  <text x="280" y="275" font-family="Arial" font-size="12" fill="#334155">Motor travado</text>
  <text x="440" y="275" font-family="Arial" font-size="12" fill="#334155">10/04/2025</text>
  <rect x="550" y="260" width="80" height="20" rx="10" ry="10" fill="#dbeafe" />
  <text x="557" y="275" font-family="Arial" font-size="10" fill="#1e40af">Em Andamento</text>
  <text x="650" y="275" font-family="Arial" font-size="12" fill="#3b82f6">Editar</text>
  <text x="700" y="275" font-family="Arial" font-size="12" fill="#ef4444">Excluir</text>
  
  <rect x="40" y="290" width="720" height="40" fill="white" stroke="#e2e8f0" stroke-width="1" />
  <text x="60" y="315" font-family="Arial" font-size="12" fill="#334155">3</text>
  <text x="120" y="315" font-family="Arial" font-size="12" fill="#334155">Gerador</text>
  <text x="280" y="315" font-family="Arial" font-size="12" fill="#334155">Superaquecimento</text>
  <text x="440" y="315" font-family="Arial" font-size="12" fill="#334155">05/04/2025</text>
  <rect x="550" y="300" width="80" height="20" rx="10" ry="10" fill="#dcfce7" />
  <text x="563" y="315" font-family="Arial" font-size="10" fill="#166534">Resolvido</text>
  <text x="650" y="315" font-family="Arial" font-size="12" fill="#3b82f6">Editar</text>
  <text x="700" y="315" font-family="Arial" font-size="12" fill="#ef4444">Excluir</text>
  
  <!-- Pagination -->
  <rect x="40" y="340" width="720" height="30" rx="4" ry="4" fill="#f8fafc" stroke="#e2e8f0" stroke-width="1" />
  <rect x="350" y="345" width="30" height="20" rx="3" ry="3" fill="#3b82f6" />
  <text x="362" y="360" font-family="Arial" font-size="12" fill="white">1</text>
  <rect x="385" y="345" width="30" height="20" rx="3" ry="3" fill="white" stroke="#cbd5e1" stroke-width="1" />
  <text x="397" y="360" font-family="Arial" font-size="12" fill="#64748b">2</text>
  <rect x="420" y="345" width="30" height="20" rx="3" ry="3" fill="white" stroke="#cbd5e1" stroke-width="1" />
  <text x="432" y="360" font-family="Arial" font-size="12" fill="#64748b">3</text>
</svg>
