<?xml version="1.0" encoding="UTF-8" standalone="no"?>
<svg xmlns="http://www.w3.org/2000/svg" width="800" height="400" viewBox="0 0 800 400">
  <!-- Background -->
  <rect width="800" height="400" fill="#f8fafc" />
  
  <!-- Main Container -->
  <rect x="20" y="20" width="760" height="360" rx="8" ry="8" fill="white" stroke="#e2e8f0" stroke-width="1" />
  
  <!-- Header Section -->
  <rect x="20" y="20" width="760" height="50" rx="8" ry="8" fill="#f1f5f9" stroke="#e2e8f0" stroke-width="1" />
  <text x="40" y="50" font-family="Arial" font-size="18" font-weight="bold" fill="#334155">Cadastro de Equipamentos</text>
  <rect x="620" y="30" width="140" height="30" rx="4" ry="4" fill="#3b82f6" />
  <text x="636" y="50" font-family="Arial" font-size="12" fill="white">Novo Equipamento</text>
  
  <!-- Search and Filter Section -->
  <rect x="40" y="90" width="720" height="50" rx="6" ry="6" fill="#f8fafc" stroke="#e2e8f0" stroke-width="1" />
  
  <rect x="50" y="95" width="300" height="40" rx="6" ry="6" fill="white" stroke="#cbd5e1" stroke-width="1" />
  <text x="70" y="120" font-family="Arial" font-size="12" fill="#94a3b8">Buscar equipamento...</text>
  
  <rect x="370" y="95" width="140" height="40" rx="6" ry="6" fill="white" stroke="#cbd5e1" stroke-width="1" />
  <text x="385" y="120" font-family="Arial" font-size="12" fill="#334155">Status: Todos</text>
  <text x="490" y="120" font-family="Arial" font-size="12" fill="#94a3b8">▼</text>
  
  <rect x="530" y="95" width="140" height="40" rx="6" ry="6" fill="white" stroke="#cbd5e1" stroke-width="1" />
  <text x="545" y="120" font-family="Arial" font-size="12" fill="#334155">Área: Todas</text>
  <text x="650" y="120" font-family="Arial" font-size="12" fill="#94a3b8">▼</text>
  
  <!-- Equipment Cards Section -->
  <!-- Card 1 -->
  <rect x="40" y="160" width="230" height="190" rx="6" ry="6" fill="white" stroke="#e2e8f0" stroke-width="1" />
  
  <rect x="40" y="160" width="230" height="40" rx="6" ry="6" fill="#f1f5f9" />
  <text x="55" y="185" font-family="Arial" font-size="14" font-weight="bold" fill="#334155">Bomba Hidráulica #3</text>
  
  <rect x="50" y="210" width="60" height="60" rx="4" ry="4" fill="#f1f5f9" />
  <path d="M 80 225 L 80 245 M 70 235 L 90 235 M 65 220 A 15 15 0 0 1 95 220 M 65 250 A 15 15 0 0 0 95 250" stroke="#64748b" stroke-width="2" fill="none" />
  
  <text x="120" y="225" font-family="Arial" font-size="12" fill="#334155">ID: EQ-2025-003</text>
  <text x="120" y="245" font-family="Arial" font-size="12" fill="#334155">Modelo: BH-2000</text>
  <text x="120" y="265" font-family="Arial" font-size="12" fill="#334155">Setor: Produção</text>
  
  <rect x="50" y="280" width="80" height="24" rx="12" ry="12" fill="#dcfce7" />
  <text x="65" y="295" font-family="Arial" font-size="10" fill="#166534">Operacional</text>
  
  <rect x="140" y="280" width="60" height="24" rx="4" ry="4" fill="#3b82f6" />
  <text x="150" y="295" font-family="Arial" font-size="10" fill="white">Detalhes</text>
  
  <rect x="205" y="280" width="55" height="24" rx="4" ry="4" fill="#94a3b8" />
  <text x="215" y="295" font-family="Arial" font-size="10" fill="white">Editar</text>
  
  <!-- Card 2 -->
  <rect x="285" y="160" width="230" height="190" rx="6" ry="6" fill="white" stroke="#e2e8f0" stroke-width="1" />
  
  <rect x="285" y="160" width="230" height="40" rx="6" ry="6" fill="#f1f5f9" />
  <text x="300" y="185" font-family="Arial" font-size="14" font-weight="bold" fill="#334155">Esteira Transportadora</text>
  
  <rect x="295" y="210" width="60" height="60" rx="4" ry="4" fill="#f1f5f9" />
  <path d="M 305 240 L 345 240 M 315 225 A 10 10 0 1 1 315 255 M 335 225 A 10 10 0 1 1 335 255" stroke="#64748b" stroke-width="2" fill="none" />
  
  <text x="365" y="225" font-family="Arial" font-size="12" fill="#334155">ID: EQ-2025-008</text>
  <text x="365" y="245" font-family="Arial" font-size="12" fill="#334155">Modelo: ET-500</text>
  <text x="365" y="265" font-family="Arial" font-size="12" fill="#334155">Setor: Logística</text>
  
  <rect x="295" y="280" width="80" height="24" rx="12" ry="12" fill="#fee2e2" />
  <text x="305" y="295" font-family="Arial" font-size="10" fill="#b91c1c">Manutenção</text>
  
  <rect x="385" y="280" width="60" height="24" rx="4" ry="4" fill="#3b82f6" />
  <text x="395" y="295" font-family="Arial" font-size="10" fill="white">Detalhes</text>
  
  <rect x="450" y="280" width="55" height="24" rx="4" ry="4" fill="#94a3b8" />
  <text x="460" y="295" font-family="Arial" font-size="10" fill="white">Editar</text>
  
  <!-- Card 3 -->
  <rect x="530" y="160" width="230" height="190" rx="6" ry="6" fill="white" stroke="#e2e8f0" stroke-width="1" />
  
  <rect x="530" y="160" width="230" height="40" rx="6" ry="6" fill="#f1f5f9" />
  <text x="545" y="185" font-family="Arial" font-size="14" font-weight="bold" fill="#334155">Gerador Elétrico</text>
  
  <rect x="540" y="210" width="60" height="60" rx="4" ry="4" fill="#f1f5f9" />
  <path d="M 570 215 L 570 265 M 550 225 L 590 255 M 550 255 L 590 225" stroke="#64748b" stroke-width="2" fill="none" />
  
  <text x="610" y="225" font-family="Arial" font-size="12" fill="#334155">ID: EQ-2025-015</text>
  <text x="610" y="245" font-family="Arial" font-size="12" fill="#334155">Modelo: GE-800</text>
  <text x="610" y="265" font-family="Arial" font-size="12" fill="#334155">Setor: Energia</text>
  
  <rect x="540" y="280" width="80" height="24" rx="12" ry="12" fill="#dbeafe" />
  <text x="552" y="295" font-family="Arial" font-size="10" fill="#1e40af">Em Inspeção</text>
  
  <rect x="630" y="280" width="60" height="24" rx="4" ry="4" fill="#3b82f6" />
  <text x="640" y="295" font-family="Arial" font-size="10" fill="white">Detalhes</text>
  
  <rect x="695" y="280" width="55" height="24" rx="4" ry="4" fill="#94a3b8" />
  <text x="705" y="295" font-family="Arial" font-size="10" fill="white">Editar</text>
  
  <!-- Pagination -->
  <rect x="40" y="360" width="720" height="30" rx="4" ry="4" fill="#f8fafc" stroke="#e2e8f0" stroke-width="1" />
  <rect x="350" y="365" width="30" height="20" rx="3" ry="3" fill="#3b82f6" />
  <text x="362" y="380" font-family="Arial" font-size="12" fill="white">1</text>
  <rect x="385" y="365" width="30" height="20" rx="3" ry="3" fill="white" stroke="#cbd5e1" stroke-width="1" />
  <text x="397" y="380" font-family="Arial" font-size="12" fill="#64748b">2</text>
  <rect x="420" y="365" width="30" height="20" rx="3" ry="3" fill="white" stroke="#cbd5e1" stroke-width="1" />
  <text x="432" y="380" font-family="Arial" font-size="12" fill="#64748b">3</text>
</svg>
