<?xml version="1.0" encoding="UTF-8" standalone="no"?>
<svg xmlns="http://www.w3.org/2000/svg" width="800" height="400" viewBox="0 0 800 400">
  <!-- Background -->
  <rect width="800" height="400" fill="#f8fafc" />
  
  <!-- Main Container -->
  <rect x="20" y="20" width="760" height="360" rx="8" ry="8" fill="white" stroke="#e2e8f0" stroke-width="1" />
  
  <!-- Header Section -->
  <rect x="20" y="20" width="760" height="50" rx="8" ry="8" fill="#f1f5f9" stroke="#e2e8f0" stroke-width="1" />
  <text x="40" y="50" font-family="Arial" font-size="18" font-weight="bold" fill="#334155">Modos de Falha</text>
  <rect x="620" y="30" width="140" height="30" rx="4" ry="4" fill="#3b82f6" />
  <text x="646" y="50" font-family="Arial" font-size="12" fill="white">Adicionar Modo</text>
  
  <!-- Search Section -->
  <rect x="40" y="90" width="300" height="40" rx="6" ry="6" fill="white" stroke="#cbd5e1" stroke-width="1" />
  <text x="60" y="115" font-family="Arial" font-size="12" fill="#94a3b8">Buscar modo de falha...</text>
  
  <!-- Filter dropdown -->
  <rect x="360" y="90" width="180" height="40" rx="6" ry="6" fill="white" stroke="#cbd5e1" stroke-width="1" />
  <text x="380" y="115" font-family="Arial" font-size="12" fill="#334155">Categoria: Todas</text>
  <text x="520" y="115" font-family="Arial" font-size="12" fill="#94a3b8">▼</text>
  
  <!-- Items per page -->
  <rect x="560" y="90" width="120" height="40" rx="6" ry="6" fill="white" stroke="#cbd5e1" stroke-width="1" />
  <text x="580" y="115" font-family="Arial" font-size="12" fill="#334155">10 por página</text>
  <text x="660" y="115" font-family="Arial" font-size="12" fill="#94a3b8">▼</text>
  
  <!-- Table Header -->
  <rect x="40" y="150" width="720" height="40" rx="4" ry="4" fill="#f8fafc" stroke="#e2e8f0" stroke-width="1" />
  <text x="60" y="175" font-family="Arial" font-size="12" font-weight="bold" fill="#334155">ID</text>
  <text x="120" y="175" font-family="Arial" font-size="12" font-weight="bold" fill="#334155">Nome</text>
  <text x="280" y="175" font-family="Arial" font-size="12" font-weight="bold" fill="#334155">Categoria</text>
  <text x="440" y="175" font-family="Arial" font-size="12" font-weight="bold" fill="#334155">Descrição</text>
  <text x="580" y="175" font-family="Arial" font-size="12" font-weight="bold" fill="#334155">Status</text>
  <text x="680" y="175" font-family="Arial" font-size="12" font-weight="bold" fill="#334155">Ações</text>
  
  <!-- Table Rows -->
  <rect x="40" y="190" width="720" height="50" fill="white" stroke="#e2e8f0" stroke-width="1" />
  <text x="60" y="220" font-family="Arial" font-size="12" fill="#334155">1</text>
  <text x="120" y="220" font-family="Arial" font-size="12" fill="#334155">Vazamento Hidráulico</text>
  <rect x="280" y="205" width="120" height="24" rx="12" ry="12" fill="#dbeafe" />
  <text x="300" y="220" font-family="Arial" font-size="10" fill="#1e40af">Sistemas Fluidos</text>
  <text x="440" y="220" font-family="Arial" font-size="12" fill="#334155">Vazamento de fluido hidráulico...</text>
  <rect x="580" y="205" width="60" height="24" rx="12" ry="12" fill="#dcfce7" />
  <text x="595" y="220" font-family="Arial" font-size="10" fill="#166534">Ativo</text>
  <text x="680" y="215" font-family="Arial" font-size="12" fill="#3b82f6">Editar</text>
  <text x="720" y="215" font-family="Arial" font-size="12" fill="#ef4444">Excluir</text>
  
  <rect x="40" y="240" width="720" height="50" fill="#f8fafc" stroke="#e2e8f0" stroke-width="1" />
  <text x="60" y="270" font-family="Arial" font-size="12" fill="#334155">2</text>
  <text x="120" y="270" font-family="Arial" font-size="12" fill="#334155">Superaquecimento</text>
  <rect x="280" y="255" width="120" height="24" rx="12" ry="12" fill="#fae8ff" />
  <text x="300" y="270" font-family="Arial" font-size="10" fill="#701a75">Elétrica</text>
  <text x="440" y="270" font-family="Arial" font-size="12" fill="#334155">Temperatura acima do limite...</text>
  <rect x="580" y="255" width="60" height="24" rx="12" ry="12" fill="#dcfce7" />
  <text x="595" y="270" font-family="Arial" font-size="10" fill="#166534">Ativo</text>
  <text x="680" y="265" font-family="Arial" font-size="12" fill="#3b82f6">Editar</text>
  <text x="720" y="265" font-family="Arial" font-size="12" fill="#ef4444">Excluir</text>
  
  <rect x="40" y="290" width="720" height="50" fill="white" stroke="#e2e8f0" stroke-width="1" />
  <text x="60" y="320" font-family="Arial" font-size="12" fill="#334155">3</text>
  <text x="120" y="320" font-family="Arial" font-size="12" fill="#334155">Vibração Excessiva</text>
  <rect x="280" y="305" width="120" height="24" rx="12" ry="12" fill="#ffedd5" />
  <text x="300" y="320" font-family="Arial" font-size="10" fill="#9a3412">Mecânica</text>
  <text x="440" y="320" font-family="Arial" font-size="12" fill="#334155">Vibração anormal em componentes...</text>
  <rect x="580" y="305" width="60" height="24" rx="12" ry="12" fill="#dcfce7" />
  <text x="595" y="320" font-family="Arial" font-size="10" fill="#166534">Ativo</text>
  <text x="680" y="315" font-family="Arial" font-size="12" fill="#3b82f6">Editar</text>
  <text x="720" y="315" font-family="Arial" font-size="12" fill="#ef4444">Excluir</text>
  
  <!-- Pagination -->
  <rect x="40" y="350" width="720" height="30" rx="4" ry="4" fill="#f8fafc" stroke="#e2e8f0" stroke-width="1" />
  <rect x="350" y="354" width="30" height="20" rx="3" ry="3" fill="#3b82f6" />
  <text x="362" y="368" font-family="Arial" font-size="12" fill="white">1</text>
  <rect x="385" y="354" width="30" height="20" rx="3" ry="3" fill="white" stroke="#cbd5e1" stroke-width="1" />
  <text x="397" y="368" font-family="Arial" font-size="12" fill="#64748b">2</text>
  <rect x="420" y="354" width="30" height="20" rx="3" ry="3" fill="white" stroke="#cbd5e1" stroke-width="1" />
  <text x="432" y="368" font-family="Arial" font-size="12" fill="#64748b">3</text>
</svg>
