<?xml version="1.0" encoding="UTF-8" standalone="no"?>
<svg xmlns="http://www.w3.org/2000/svg" width="800" height="400" viewBox="0 0 800 400">
  <!-- Background -->
  <rect width="800" height="400" fill="#f8fafc" />
  
  <!-- Main Container -->
  <rect x="20" y="20" width="760" height="360" rx="8" ry="8" fill="white" stroke="#e2e8f0" stroke-width="1" />
  
  <!-- Header Section -->
  <rect x="20" y="20" width="760" height="50" rx="8" ry="8" fill="#f1f5f9" stroke="#e2e8f0" stroke-width="1" />
  <text x="40" y="50" font-family="Arial" font-size="18" font-weight="bold" fill="#334155">Planejamento de Manutenção</text>
  <rect x="620" y="30" width="140" height="30" rx="4" ry="4" fill="#3b82f6" />
  <text x="637" y="50" font-family="Arial" font-size="12" fill="white">Adicionar Planejamento</text>
  
  <!-- Calendar View Header -->
  <rect x="40" y="90" width="720" height="40" rx="4" ry="4" fill="#f1f5f9" stroke="#e2e8f0" stroke-width="1" />
  <text x="55" y="115" font-family="Arial" font-size="14" font-weight="bold" fill="#334155">Abril 2025</text>
  
  <!-- Calendar Navigation -->
  <rect x="580" y="95" width="30" height="30" rx="15" ry="15" fill="white" stroke="#cbd5e1" stroke-width="1" />
  <text x="590" y="115" font-family="Arial" font-size="14" fill="#64748b">◀</text>
  
  <rect x="620" y="95" width="30" height="30" rx="15" ry="15" fill="white" stroke="#cbd5e1" stroke-width="1" />
  <text x="630" y="115" font-family="Arial" font-size="14" fill="#64748b">▶</text>
  
  <rect x="660" y="95" width="80" height="30" rx="4" ry="4" fill="white" stroke="#cbd5e1" stroke-width="1" />
  <text x="675" y="115" font-family="Arial" font-size="12" fill="#64748b">Hoje</text>
  
  <!-- Calendar Week Days -->
  <rect x="40" y="140" width="102" height="30" rx="0" ry="0" fill="#f8fafc" stroke="#e2e8f0" stroke-width="1" />
  <text x="80" y="160" font-family="Arial" font-size="12" fill="#64748b" text-anchor="middle">Dom</text>
  
  <rect x="142" y="140" width="102" height="30" rx="0" ry="0" fill="#f8fafc" stroke="#e2e8f0" stroke-width="1" />
  <text x="182" y="160" font-family="Arial" font-size="12" fill="#64748b" text-anchor="middle">Seg</text>
  
  <rect x="244" y="140" width="102" height="30" rx="0" ry="0" fill="#f8fafc" stroke="#e2e8f0" stroke-width="1" />
  <text x="284" y="160" font-family="Arial" font-size="12" fill="#64748b" text-anchor="middle">Ter</text>
  
  <rect x="346" y="140" width="102" height="30" rx="0" ry="0" fill="#f8fafc" stroke="#e2e8f0" stroke-width="1" />
  <text x="386" y="160" font-family="Arial" font-size="12" fill="#64748b" text-anchor="middle">Qua</text>
  
  <rect x="448" y="140" width="102" height="30" rx="0" ry="0" fill="#f8fafc" stroke="#e2e8f0" stroke-width="1" />
  <text x="488" y="160" font-family="Arial" font-size="12" fill="#64748b" text-anchor="middle">Qui</text>
  
  <rect x="550" y="140" width="102" height="30" rx="0" ry="0" fill="#f8fafc" stroke="#e2e8f0" stroke-width="1" />
  <text x="590" y="160" font-family="Arial" font-size="12" fill="#64748b" text-anchor="middle">Sex</text>
  
  <rect x="652" y="140" width="108" height="30" rx="0" ry="0" fill="#f8fafc" stroke="#e2e8f0" stroke-width="1" />
  <text x="692" y="160" font-family="Arial" font-size="12" fill="#64748b" text-anchor="middle">Sáb</text>
  
  <!-- Calendar Week 1 -->
  <rect x="40" y="170" width="102" height="80" rx="0" ry="0" fill="white" stroke="#e2e8f0" stroke-width="1" />
  <text x="55" y="190" font-family="Arial" font-size="14" fill="#94a3b8">30</text>
  
  <rect x="142" y="170" width="102" height="80" rx="0" ry="0" fill="white" stroke="#e2e8f0" stroke-width="1" />
  <text x="157" y="190" font-family="Arial" font-size="14" fill="#94a3b8">31</text>
  
  <rect x="244" y="170" width="102" height="80" rx="0" ry="0" fill="white" stroke="#e2e8f0" stroke-width="1" />
  <text x="259" y="190" font-family="Arial" font-size="14" fill="#0f172a">1</text>
  
  <rect x="346" y="170" width="102" height="80" rx="0" ry="0" fill="white" stroke="#e2e8f0" stroke-width="1" />
  <text x="361" y="190" font-family="Arial" font-size="14" fill="#0f172a">2</text>
  
  <rect x="448" y="170" width="102" height="80" rx="0" ry="0" fill="white" stroke="#e2e8f0" stroke-width="1" />
  <text x="463" y="190" font-family="Arial" font-size="14" fill="#0f172a">3</text>
  
  <rect x="550" y="170" width="102" height="80" rx="0" ry="0" fill="white" stroke="#e2e8f0" stroke-width="1" />
  <text x="565" y="190" font-family="Arial" font-size="14" fill="#0f172a">4</text>
  
  <rect x="652" y="170" width="108" height="80" rx="0" ry="0" fill="white" stroke="#e2e8f0" stroke-width="1" />
  <text x="667" y="190" font-family="Arial" font-size="14" fill="#0f172a">5</text>
  
  <!-- Calendar Week 2 -->
  <rect x="40" y="250" width="102" height="80" rx="0" ry="0" fill="white" stroke="#e2e8f0" stroke-width="1" />
  <text x="55" y="270" font-family="Arial" font-size="14" fill="#0f172a">6</text>
  
  <rect x="142" y="250" width="102" height="80" rx="0" ry="0" fill="white" stroke="#e2e8f0" stroke-width="1" />
  <text x="157" y="270" font-family="Arial" font-size="14" fill="#0f172a">7</text>
  
  <rect x="244" y="250" width="102" height="80" rx="0" ry="0" fill="white" stroke="#e2e8f0" stroke-width="1" />
  <text x="259" y="270" font-family="Arial" font-size="14" fill="#0f172a">8</text>
  
  <rect x="346" y="250" width="102" height="80" rx="0" ry="0" fill="#ebf8ff" stroke="#e2e8f0" stroke-width="1" />
  <text x="361" y="270" font-family="Arial" font-size="14" fill="#0f172a">9</text>
  <rect x="361" y="280" width="72" height="20" rx="3" ry="3" fill="#bfdbfe" />
  <text x="370" y="293" font-family="Arial" font-size="10" fill="#1e3a8a">Revisão #12</text>
  <rect x="361" y="305" width="72" height="20" rx="3" ry="3" fill="#a7f3d0" />
  <text x="370" y="318" font-family="Arial" font-size="10" fill="#065f46">Calibração</text>
  
  <rect x="448" y="250" width="102" height="80" rx="0" ry="0" fill="white" stroke="#e2e8f0" stroke-width="1" />
  <text x="463" y="270" font-family="Arial" font-size="14" fill="#0f172a">10</text>
  
  <rect x="550" y="250" width="102" height="80" rx="0" ry="0" fill="white" stroke="#e2e8f0" stroke-width="1" />
  <text x="565" y="270" font-family="Arial" font-size="14" fill="#0f172a">11</text>
  
  <rect x="652" y="250" width="108" height="80" rx="0" ry="0" fill="white" stroke="#e2e8f0" stroke-width="1" />
  <text x="667" y="270" font-family="Arial" font-size="14" fill="#0f172a">12</text>
  
  <!-- Today Highlight -->
  <rect x="244" y="330" width="102" height="80" rx="0" ry="0" fill="#fef3c7" stroke="#e2e8f0" stroke-width="2" />
  <text x="259" y="350" font-family="Arial" font-size="14" font-weight="bold" fill="#0f172a">13</text>
  <rect x="259" y="360" width="72" height="20" rx="3" ry="3" fill="#fecaca" />
  <text x="268" y="373" font-family="Arial" font-size="10" fill="#991b1b">Urgente!</text>
</svg>
