<?xml version="1.0" encoding="UTF-8" standalone="no"?>
<svg xmlns="http://www.w3.org/2000/svg" width="800" height="400" viewBox="0 0 800 400">
  <!-- Background -->
  <rect width="800" height="400" fill="#f8fafc" />
  
  <!-- Main Container -->
  <rect x="20" y="20" width="760" height="360" rx="8" ry="8" fill="white" stroke="#e2e8f0" stroke-width="1" />
  
  <!-- Header Section -->
  <rect x="20" y="20" width="760" height="50" rx="8" ry="8" fill="#f1f5f9" stroke="#e2e8f0" stroke-width="1" />
  <text x="40" y="50" font-family="Arial" font-size="18" font-weight="bold" fill="#334155">Relatórios de Manutenção</text>
  <rect x="620" y="30" width="140" height="30" rx="4" ry="4" fill="#3b82f6" />
  <text x="650" y="50" font-family="Arial" font-size="12" fill="white">Exportar PDF</text>
  
  <!-- Report Filter Section -->
  <rect x="40" y="90" width="720" height="60" rx="6" ry="6" fill="#f8fafc" stroke="#e2e8f0" stroke-width="1" />
  
  <!-- Date Range -->
  <text x="55" y="110" font-family="Arial" font-size="12" font-weight="bold" fill="#334155">Período:</text>
  <rect x="55" y="115" width="130" height="25" rx="4" ry="4" fill="white" stroke="#cbd5e1" stroke-width="1" />
  <text x="70" y="132" font-family="Arial" font-size="11" fill="#334155">01/01/2025</text>
  <text x="145" y="132" font-family="Arial" font-size="11" fill="#64748b">📅</text>
  
  <text x="195" y="132" font-family="Arial" font-size="11" fill="#64748b">até</text>
  
  <rect x="220" y="115" width="130" height="25" rx="4" ry="4" fill="white" stroke="#cbd5e1" stroke-width="1" />
  <text x="235" y="132" font-family="Arial" font-size="11" fill="#334155">13/04/2025</text>
  <text x="310" y="132" font-family="Arial" font-size="11" fill="#64748b">📅</text>
  
  <!-- Report Type -->
  <text x="370" y="110" font-family="Arial" font-size="12" font-weight="bold" fill="#334155">Tipo de Relatório:</text>
  <rect x="370" y="115" width="170" height="25" rx="4" ry="4" fill="white" stroke="#cbd5e1" stroke-width="1" />
  <text x="385" y="132" font-family="Arial" font-size="11" fill="#334155">Desempenho de Manutenção</text>
  <text x="520" y="132" font-family="Arial" font-size="11" fill="#64748b">▼</text>
  
  <!-- Apply Button -->
  <rect x="560" y="115" width="110" height="25" rx="4" ry="4" fill="#3b82f6" />
  <text x="585" y="132" font-family="Arial" font-size="11" fill="white">Aplicar</text>
  
  <!-- Report Content -->
  <rect x="40" y="170" width="350" height="190" rx="6" ry="6" fill="white" stroke="#e2e8f0" stroke-width="1" />
  <rect x="40" y="170" width="350" height="35" rx="6" ry="6" fill="#f1f5f9" />
  <text x="55" y="193" font-family="Arial" font-size="14" font-weight="bold" fill="#334155">Índice de Conformidade</text>
  
  <!-- Donut Chart -->
  <circle cx="130" cy="270" r="55" fill="none" stroke="#e2e8f0" stroke-width="10" />
  <path d="M 130 215 A 55 55 0 1 1 75 270 A 55 55 0 0 1 130 215" fill="none" stroke="#10b981" stroke-width="10" />
  <path d="M 130 215 A 55 55 0 0 1 185 270 A 55 55 0 0 1 130 325" fill="none" stroke="#f97316" stroke-width="10" />
  <path d="M 130 325 A 55 55 0 0 1 75 270" fill="none" stroke="#ef4444" stroke-width="10" />
  <text x="115" y="275" font-family="Arial" font-size="18" font-weight="bold" fill="#334155">82%</text>
  
  <text x="210" y="235" font-family="Arial" font-size="12" fill="#334155">● Conforme: 82%</text>
  <text x="210" y="260" font-family="Arial" font-size="12" fill="#334155">● Parcial: 12%</text>
  <text x="210" y="285" font-family="Arial" font-size="12" fill="#334155">● Não conforme: 6%</text>
  
  <!-- Second Chart -->
  <rect x="410" y="170" width="350" height="190" rx="6" ry="6" fill="white" stroke="#e2e8f0" stroke-width="1" />
  <rect x="410" y="170" width="350" height="35" rx="6" ry="6" fill="#f1f5f9" />
  <text x="425" y="193" font-family="Arial" font-size="14" font-weight="bold" fill="#334155">Tempo Médio de Reparo (MTTR)</text>
  
  <!-- Bar Chart -->
  <line x1="430" y1="320" x2="740" y2="320" stroke="#e2e8f0" stroke-width="1" />
  <text x="430" y="335" font-family="Arial" font-size="10" fill="#64748b">Jan</text>
  <text x="480" y="335" font-family="Arial" font-size="10" fill="#64748b">Fev</text>
  <text x="530" y="335" font-family="Arial" font-size="10" fill="#64748b">Mar</text>
  <text x="580" y="335" font-family="Arial" font-size="10" fill="#64748b">Abr</text>
  <text x="630" y="335" font-family="Arial" font-size="10" fill="#64748b">Mai</text>
  <text x="680" y="335" font-family="Arial" font-size="10" fill="#64748b">Jun</text>
  <text x="730" y="335" font-family="Arial" font-size="10" fill="#64748b">Jul</text>
  
  <!-- Y axis -->
  <line x1="430" y1="220" x2="430" y2="320" stroke="#e2e8f0" stroke-width="1" />
  <text x="415" y="320" font-family="Arial" font-size="10" fill="#64748b">0h</text>
  <text x="415" y="280" font-family="Arial" font-size="10" fill="#64748b">1h</text>
  <text x="415" y="240" font-family="Arial" font-size="10" fill="#64748b">2h</text>
  
  <!-- Bars -->
  <rect x="440" y="280" width="30" height="40" fill="#3b82f6" />
  <rect x="490" y="260" width="30" height="60" fill="#3b82f6" />
  <rect x="540" y="300" width="30" height="20" fill="#3b82f6" />
  <rect x="590" y="240" width="30" height="80" fill="#3b82f6" />
  <rect x="640" y="260" width="30" height="60" fill="#3b82f6" />
  <rect x="690" y="220" width="30" height="100" fill="#3b82f6" />
</svg>
