<?xml version="1.0" encoding="UTF-8" standalone="no"?>
<svg xmlns="http://www.w3.org/2000/svg" width="1200" height="400" viewBox="0 0 1200 400">
  <rect width="1200" height="400" fill="#3b82f6"/>
  <rect x="20" y="20" width="1160" height="360" rx="8" ry="8" fill="#ffffff" stroke="#e5e7eb" stroke-width="1"/>
  
  <!-- Header -->
  <rect x="20" y="20" width="1160" height="60" rx="8" ry="8" fill="#f9fafb"/>
  <text x="50" y="55" fill="#111827" font-family="Arial" font-size="20" font-weight="bold">ERP Dembena - Módulo de RH</text>
  
  <!-- Sidebar -->
  <rect x="20" y="80" width="200" height="300" fill="#f9fafb"/>
  <rect x="30" y="100" width="180" height="40" rx="4" ry="4" fill="#3b82f6"/>
  <text x="70" y="125" fill="#ffffff" font-family="Arial" font-size="14">Dashboard</text>
  
  <rect x="30" y="150" width="180" height="40" rx="4" ry="4" fill="#f3f4f6"/>
  <text x="70" y="175" fill="#374151" font-family="Arial" font-size="14">Funcionários</text>
  
  <rect x="30" y="200" width="180" height="40" rx="4" ry="4" fill="#f3f4f6"/>
  <text x="70" y="225" fill="#374151" font-family="Arial" font-size="14">Departamentos</text>
  
  <rect x="30" y="250" width="180" height="40" rx="4" ry="4" fill="#f3f4f6"/>
  <text x="70" y="275" fill="#374151" font-family="Arial" font-size="14">Licenças</text>
  
  <rect x="30" y="300" width="180" height="40" rx="4" ry="4" fill="#f3f4f6"/>
  <text x="70" y="325" fill="#374151" font-family="Arial" font-size="14">Relatórios</text>
  
  <!-- Main Content -->
  <rect x="240" y="80" width="920" height="300" rx="8" ry="8" fill="#ffffff"/>
  
  <!-- Dashboard Cards -->
  <rect x="260" y="100" width="210" height="120" rx="8" ry="8" fill="#f0f9ff" stroke="#bae6fd" stroke-width="1"/>
  <text x="280" y="130" fill="#0369a1" font-family="Arial" font-size="16" font-weight="bold">Funcionários</text>
  <text x="280" y="160" fill="#374151" font-family="Arial" font-size="24" font-weight="bold">156</text>
  <text x="280" y="185" fill="#6b7280" font-family="Arial" font-size="12">+12 no último mês</text>
  
  <rect x="490" y="100" width="210" height="120" rx="8" ry="8" fill="#f0fdf4" stroke="#bbf7d0" stroke-width="1"/>
  <text x="510" y="130" fill="#15803d" font-family="Arial" font-size="16" font-weight="bold">Departamentos</text>
  <text x="510" y="160" fill="#374151" font-family="Arial" font-size="24" font-weight="bold">8</text>
  <text x="510" y="185" fill="#6b7280" font-family="Arial" font-size="12">3 com vagas abertas</text>
  
  <rect x="720" y="100" width="210" height="120" rx="8" ry="8" fill="#fff7ed" stroke="#fed7aa" stroke-width="1"/>
  <text x="740" y="130" fill="#c2410c" font-family="Arial" font-size="16" font-weight="bold">Licenças Ativas</text>
  <text x="740" y="160" fill="#374151" font-family="Arial" font-size="24" font-weight="bold">12</text>
  <text x="740" y="185" fill="#6b7280" font-family="Arial" font-size="12">5 retornam esta semana</text>
  
  <rect x="950" y="100" width="210" height="120" rx="8" ry="8" fill="#faf5ff" stroke="#e9d5ff" stroke-width="1"/>
  <text x="970" y="130" fill="#7e22ce" font-family="Arial" font-size="16" font-weight="bold">Avaliações</text>
  <text x="970" y="160" fill="#374151" font-family="Arial" font-size="24" font-weight="bold">24</text>
  <text x="970" y="185" fill="#6b7280" font-family="Arial" font-size="12">8 pendentes de revisão</text>
  
  <!-- Chart -->
  <rect x="260" y="240" width="440" height="140" rx="8" ry="8" fill="#ffffff" stroke="#e5e7eb" stroke-width="1"/>
  <text x="280" y="270" fill="#111827" font-family="Arial" font-size="16" font-weight="bold">Distribuição por Departamento</text>
  <rect x="280" y="290" width="400" height="70" fill="#f9fafb" rx="4" ry="4"/>
  <rect x="290" y="300" width="60" height="50" fill="#3b82f6"/>
  <rect x="360" y="310" width="60" height="40" fill="#10b981"/>
  <rect x="430" y="320" width="60" height="30" fill="#f59e0b"/>
  <rect x="500" y="330" width="60" height="20" fill="#ef4444"/>
  <rect x="570" y="340" width="60" height="10" fill="#8b5cf6"/>
  
  <!-- Recent Activity -->
  <rect x="720" y="240" width="440" height="140" rx="8" ry="8" fill="#ffffff" stroke="#e5e7eb" stroke-width="1"/>
  <text x="740" y="270" fill="#111827" font-family="Arial" font-size="16" font-weight="bold">Atividade Recente</text>
  
  <line x1="740" y1="290" x2="1140" y2="290" stroke="#e5e7eb" stroke-width="1"/>
  <text x="750" y="310" fill="#374151" font-family="Arial" font-size="12">João Silva adicionado ao Dep. de Marketing</text>
  
  <line x1="740" y1="325" x2="1140" y2="325" stroke="#e5e7eb" stroke-width="1"/>
  <text x="750" y="345" fill="#374151" font-family="Arial" font-size="12">Licença médica aprovada para Maria Oliveira</text>
  
  <line x1="740" y1="360" x2="1140" y2="360" stroke="#e5e7eb" stroke-width="1"/>
  <text x="750" y="380" fill="#374151" font-family="Arial" font-size="12">Avaliação de desempenho finalizada - TI</text>
</svg>
