<?xml version="1.0" encoding="UTF-8" standalone="no"?>
<svg xmlns="http://www.w3.org/2000/svg" width="1200" height="400" viewBox="0 0 1200 400">
  <rect width="1200" height="400" fill="#10b981"/>
  <rect x="20" y="20" width="1160" height="360" rx="8" ry="8" fill="#ffffff" stroke="#e5e7eb" stroke-width="1"/>
  
  <!-- Header -->
  <rect x="20" y="20" width="1160" height="60" rx="8" ry="8" fill="#f9fafb"/>
  <text x="50" y="55" fill="#111827" font-family="Arial" font-size="20" font-weight="bold">Gerenciamento de Documentos</text>
  <rect x="900" y="30" width="150" height="40" rx="4" ry="4" fill="#10b981"/>
  <text x="920" y="55" fill="#ffffff" font-family="Arial" font-size="14" font-weight="bold">+ Adicionar Documento</text>
  
  <!-- Filters -->
  <rect x="50" y="100" width="400" height="40" rx="4" ry="4" fill="#f3f4f6"/>
  <text x="70" y="125" fill="#374151" font-family="Arial" font-size="14" font-weight="bold">Documentos de: Maria Silva</text>
  
  <rect x="470" y="100" width="200" height="40" rx="4" ry="4" fill="#ffffff" stroke="#d1d5db" stroke-width="1"/>
  <text x="490" y="125" fill="#374151" font-family="Arial" font-size="14">Tipo ▼</text>
  
  <rect x="690" y="100" width="200" height="40" rx="4" ry="4" fill="#ffffff" stroke="#d1d5db" stroke-width="1"/>
  <text x="710" y="125" fill="#374151" font-family="Arial" font-size="14">Status ▼</text>
  
  <!-- Documents List -->
  <rect x="50" y="160" width="1100" height="200" rx="4" ry="4" fill="#ffffff" stroke="#e5e7eb" stroke-width="1"/>
  
  <!-- Table Header -->
  <rect x="50" y="160" width="1100" height="40" fill="#f9fafb" rx="4" ry="4"/>
  <text x="70" y="185" fill="#6b7280" font-family="Arial" font-size="12" font-weight="bold">TÍTULO</text>
  <text x="300" y="185" fill="#6b7280" font-family="Arial" font-size="12" font-weight="bold">TIPO</text>
  <text x="500" y="185" fill="#6b7280" font-family="Arial" font-size="12" font-weight="bold">DATA DE UPLOAD</text>
  <text x="700" y="185" fill="#6b7280" font-family="Arial" font-size="12" font-weight="bold">VALIDADE</text>
  <text x="900" y="185" fill="#6b7280" font-family="Arial" font-size="12" font-weight="bold">STATUS</text>
  <text x="1080" y="185" fill="#6b7280" font-family="Arial" font-size="12" font-weight="bold">AÇÕES</text>
  
  <!-- Document Row 1 -->
  <line x1="50" y1="200" x2="1150" y2="200" stroke="#e5e7eb" stroke-width="1"/>
  <rect x="60" y="210" width="30" height="30" fill="#f3f4f6" rx="4" ry="4"/>
  <text x="70" y="230" fill="#111827" font-family="Arial" font-size="14">Carteira de Identidade</text>
  <text x="300" y="230" fill="#111827" font-family="Arial" font-size="14">Documento Pessoal</text>
  <text x="500" y="230" fill="#111827" font-family="Arial" font-size="14">12/01/2025</text>
  <text x="700" y="230" fill="#111827" font-family="Arial" font-size="14">12/01/2030</text>
  <rect x="900" y="215" width="70" height="25" rx="12" ry="12" fill="#dcfce7"/>
  <text x="915" y="230" fill="#15803d" font-family="Arial" font-size="12">Válido</text>
  <rect x="1050" y="215" width="30" height="25" rx="4" ry="4" fill="#3b82f6"/>
  <rect x="1090" y="215" width="30" height="25" rx="4" ry="4" fill="#ef4444"/>
  
  <!-- Document Row 2 -->
  <line x1="50" y1="250" x2="1150" y2="250" stroke="#e5e7eb" stroke-width="1"/>
  <rect x="60" y="260" width="30" height="30" fill="#f3f4f6" rx="4" ry="4"/>
  <text x="70" y="280" fill="#111827" font-family="Arial" font-size="14">Diploma Universitário</text>
  <text x="300" y="280" fill="#111827" font-family="Arial" font-size="14">Acadêmico</text>
  <text x="500" y="280" fill="#111827" font-family="Arial" font-size="14">05/03/2025</text>
  <text x="700" y="280" fill="#111827" font-family="Arial" font-size="14">N/A</text>
  <rect x="900" y="265" width="70" height="25" rx="12" ry="12" fill="#dcfce7"/>
  <text x="915" y="280" fill="#15803d" font-family="Arial" font-size="12">Válido</text>
  <rect x="1050" y="265" width="30" height="25" rx="4" ry="4" fill="#3b82f6"/>
  <rect x="1090" y="265" width="30" height="25" rx="4" ry="4" fill="#ef4444"/>
  
  <!-- Document Row 3 -->
  <line x1="50" y1="300" x2="1150" y2="300" stroke="#e5e7eb" stroke-width="1"/>
  <rect x="60" y="310" width="30" height="30" fill="#f3f4f6" rx="4" ry="4"/>
  <text x="70" y="330" fill="#111827" font-family="Arial" font-size="14">Certificado de Inglês</text>
  <text x="300" y="330" fill="#111827" font-family="Arial" font-size="14">Certificação</text>
  <text x="500" y="330" fill="#111827" font-family="Arial" font-size="14">20/02/2025</text>
  <text x="700" y="330" fill="#111827" font-family="Arial" font-size="14">20/02/2027</text>
  <rect x="900" y="315" width="80" height="25" rx="12" ry="12" fill="#ffedd5"/>
  <text x="910" y="330" fill="#9a3412" font-family="Arial" font-size="12">A vencer</text>
  <rect x="1050" y="315" width="30" height="25" rx="4" ry="4" fill="#3b82f6"/>
  <rect x="1090" y="315" width="30" height="25" rx="4" ry="4" fill="#ef4444"/>
</svg>
