<?xml version="1.0" encoding="UTF-8" standalone="no"?>
<svg xmlns="http://www.w3.org/2000/svg" width="800" height="500" viewBox="0 0 800 500">
  <rect width="800" height="500" fill="#e0f2fe"/>
  <rect x="20" y="20" width="760" height="460" rx="8" ry="8" fill="#ffffff" stroke="#e5e7eb" stroke-width="1"/>
  
  <!-- Form Header -->
  <rect x="20" y="20" width="760" height="60" rx="8" ry="8" fill="#f9fafb"/>
  <text x="50" y="55" fill="#111827" font-family="Arial" font-size="18" font-weight="bold">Cadastro de Novo Funcionário</text>
  
  <!-- Form Content -->
  <rect x="40" y="100" width="720" height="360" fill="#ffffff"/>
  
  <!-- Tabs -->
  <rect x="40" y="100" width="720" height="40" fill="#f3f4f6"/>
  <rect x="50" y="100" width="150" height="40" rx="4" ry="4" fill="#ffffff" stroke="#e5e7eb" stroke-width="1"/>
  <text x="80" y="125" fill="#3b82f6" font-family="Arial" font-size="14" font-weight="bold">Dados Pessoais</text>
  
  <rect x="210" y="100" width="150" height="40" rx="4" ry="4" fill="#f3f4f6"/>
  <text x="240" y="125" fill="#6b7280" font-family="Arial" font-size="14">Profissional</text>
  
  <rect x="370" y="100" width="150" height="40" rx="4" ry="4" fill="#f3f4f6"/>
  <text x="400" y="125" fill="#6b7280" font-family="Arial" font-size="14">Documentos</text>
  
  <rect x="530" y="100" width="150" height="40" rx="4" ry="4" fill="#f3f4f6"/>
  <text x="560" y="125" fill="#6b7280" font-family="Arial" font-size="14">Benefícios</text>
  
  <!-- Form Fields - Personal Data -->
  <text x="60" y="170" fill="#374151" font-family="Arial" font-size="14" font-weight="bold">Nome Completo *</text>
  <rect x="60" y="180" width="320" height="40" rx="4" ry="4" fill="#ffffff" stroke="#d1d5db" stroke-width="1"/>
  <text x="70" y="205" fill="#6b7280" font-family="Arial" font-size="14">Maria Silva Santos</text>
  
  <text x="400" y="170" fill="#374151" font-family="Arial" font-size="14" font-weight="bold">Data de Nascimento *</text>
  <rect x="400" y="180" width="160" height="40" rx="4" ry="4" fill="#ffffff" stroke="#d1d5db" stroke-width="1"/>
  <text x="410" y="205" fill="#6b7280" font-family="Arial" font-size="14">15/03/1990</text>
  
  <text x="580" y="170" fill="#374151" font-family="Arial" font-size="14" font-weight="bold">Gênero *</text>
  <rect x="580" y="180" width="160" height="40" rx="4" ry="4" fill="#ffffff" stroke="#d1d5db" stroke-width="1"/>
  <text x="590" y="205" fill="#6b7280" font-family="Arial" font-size="14">Feminino</text>
  
  <text x="60" y="240" fill="#374151" font-family="Arial" font-size="14" font-weight="bold">CPF *</text>
  <rect x="60" y="250" width="200" height="40" rx="4" ry="4" fill="#ffffff" stroke="#d1d5db" stroke-width="1"/>
  <text x="70" y="275" fill="#6b7280" font-family="Arial" font-size="14">123.456.789-00</text>
  
  <text x="280" y="240" fill="#374151" font-family="Arial" font-size="14" font-weight="bold">RG *</text>
  <rect x="280" y="250" width="200" height="40" rx="4" ry="4" fill="#ffffff" stroke="#d1d5db" stroke-width="1"/>
  <text x="290" y="275" fill="#6b7280" font-family="Arial" font-size="14">12.345.678-9</text>
  
  <text x="500" y="240" fill="#374151" font-family="Arial" font-size="14" font-weight="bold">Estado Civil</text>
  <rect x="500" y="250" width="240" height="40" rx="4" ry="4" fill="#ffffff" stroke="#d1d5db" stroke-width="1"/>
  <text x="510" y="275" fill="#6b7280" font-family="Arial" font-size="14">Casado(a)</text>
  
  <text x="60" y="310" fill="#374151" font-family="Arial" font-size="14" font-weight="bold">Endereço *</text>
  <rect x="60" y="320" width="680" height="40" rx="4" ry="4" fill="#ffffff" stroke="#d1d5db" stroke-width="1"/>
  <text x="70" y="345" fill="#6b7280" font-family="Arial" font-size="14">Rua das Flores, 123 - Bairro Jardim - São Paulo/SP</text>
  
  <text x="60" y="380" fill="#374151" font-family="Arial" font-size="14" font-weight="bold">E-mail *</text>
  <rect x="60" y="390" width="320" height="40" rx="4" ry="4" fill="#ffffff" stroke="#d1d5db" stroke-width="1"/>
  <text x="70" y="415" fill="#6b7280" font-family="Arial" font-size="14">maria.silva@email.com</text>
  
  <text x="400" y="380" fill="#374151" font-family="Arial" font-size="14" font-weight="bold">Telefone *</text>
  <rect x="400" y="390" width="340" height="40" rx="4" ry="4" fill="#ffffff" stroke="#d1d5db" stroke-width="1"/>
  <text x="410" y="415" fill="#6b7280" font-family="Arial" font-size="14">(11) 98765-4321</text>
  
  <!-- Bottom Buttons -->
  <rect x="540" y="450" width="100" height="40" rx="4" ry="4" fill="#f3f4f6" stroke="#d1d5db" stroke-width="1"/>
  <text x="565" y="475" fill="#374151" font-family="Arial" font-size="14">Cancelar</text>
  
  <rect x="650" y="450" width="130" height="40" rx="4" ry="4" fill="#3b82f6"/>
  <text x="690" y="475" fill="#ffffff" font-family="Arial" font-size="14" font-weight="bold">Próximo</text>
  
  <!-- Required Fields Note -->
  <text x="60" y="475" fill="#6b7280" font-family="Arial" font-size="12">* Campos obrigatórios</text>
</svg>
