<?xml version="1.0" encoding="UTF-8" standalone="no"?>
<svg xmlns="http://www.w3.org/2000/svg" width="1200" height="400" viewBox="0 0 1200 400">
  <rect width="1200" height="400" fill="#f59e0b"/>
  <rect x="20" y="20" width="1160" height="360" rx="8" ry="8" fill="#ffffff" stroke="#e5e7eb" stroke-width="1"/>
  
  <!-- Header -->
  <rect x="20" y="20" width="1160" height="60" rx="8" ry="8" fill="#f9fafb"/>
  <text x="50" y="55" fill="#111827" font-family="Arial" font-size="20" font-weight="bold">Gerenciamento de Funcionários</text>
  <rect x="900" y="30" width="150" height="40" rx="4" ry="4" fill="#3b82f6"/>
  <text x="930" y="55" fill="#ffffff" font-family="Arial" font-size="14" font-weight="bold">+ Adicionar</text>
  
  <!-- Search and Filters -->
  <rect x="50" y="100" width="1100" height="60" rx="4" ry="4" fill="#f3f4f6"/>
  <rect x="70" y="110" width="400" height="40" rx="4" ry="4" fill="#ffffff" stroke="#d1d5db" stroke-width="1"/>
  <text x="90" y="135" fill="#9ca3af" font-family="Arial" font-size="14">Pesquisar funcionários...</text>
  
  <rect x="490" y="110" width="180" height="40" rx="4" ry="4" fill="#ffffff" stroke="#d1d5db" stroke-width="1"/>
  <text x="510" y="135" fill="#374151" font-family="Arial" font-size="14">Departamento ▼</text>
  
  <rect x="690" y="110" width="180" height="40" rx="4" ry="4" fill="#ffffff" stroke="#d1d5db" stroke-width="1"/>
  <text x="710" y="135" fill="#374151" font-family="Arial" font-size="14">Cargo ▼</text>
  
  <rect x="890" y="110" width="180" height="40" rx="4" ry="4" fill="#ffffff" stroke="#d1d5db" stroke-width="1"/>
  <text x="910" y="135" fill="#374151" font-family="Arial" font-size="14">Status ▼</text>
  
  <!-- Table Header -->
  <rect x="50" y="180" width="1100" height="40" fill="#f9fafb"/>
  <line x1="50" y1="180" x2="1150" y2="180" stroke="#e5e7eb" stroke-width="1"/>
  <line x1="50" y1="220" x2="1150" y2="220" stroke="#e5e7eb" stroke-width="1"/>
  
  <text x="70" y="205" fill="#6b7280" font-family="Arial" font-size="12" font-weight="bold">NOME</text>
  <text x="350" y="205" fill="#6b7280" font-family="Arial" font-size="12" font-weight="bold">EMAIL</text>
  <text x="600" y="205" fill="#6b7280" font-family="Arial" font-size="12" font-weight="bold">DEPARTAMENTO</text>
  <text x="850" y="205" fill="#6b7280" font-family="Arial" font-size="12" font-weight="bold">CARGO</text>
  <text x="1050" y="205" fill="#6b7280" font-family="Arial" font-size="12" font-weight="bold">AÇÕES</text>
  
  <!-- Table Rows -->
  <line x1="50" y1="260" x2="1150" y2="260" stroke="#e5e7eb" stroke-width="1"/>
  <text x="70" y="245" fill="#111827" font-family="Arial" font-size="14">Maria Silva</text>
  <text x="350" y="245" fill="#111827" font-family="Arial" font-size="14">maria.silva@empresa.com</text>
  <text x="600" y="245" fill="#111827" font-family="Arial" font-size="14">Recursos Humanos</text>
  <text x="850" y="245" fill="#111827" font-family="Arial" font-size="14">Gerente</text>
  <rect x="1050" y="230" width="30" height="20" rx="4" ry="4" fill="#3b82f6"/>
  <rect x="1090" y="230" width="30" height="20" rx="4" ry="4" fill="#ef4444"/>
  
  <line x1="50" y1="300" x2="1150" y2="300" stroke="#e5e7eb" stroke-width="1"/>
  <text x="70" y="285" fill="#111827" font-family="Arial" font-size="14">João Santos</text>
  <text x="350" y="285" fill="#111827" font-family="Arial" font-size="14">joao.santos@empresa.com</text>
  <text x="600" y="285" fill="#111827" font-family="Arial" font-size="14">Tecnologia</text>
  <text x="850" y="285" fill="#111827" font-family="Arial" font-size="14">Desenvolvedor</text>
  <rect x="1050" y="270" width="30" height="20" rx="4" ry="4" fill="#3b82f6"/>
  <rect x="1090" y="270" width="30" height="20" rx="4" ry="4" fill="#ef4444"/>
  
  <line x1="50" y1="340" x2="1150" y2="340" stroke="#e5e7eb" stroke-width="1"/>
  <text x="70" y="325" fill="#111827" font-family="Arial" font-size="14">Ana Oliveira</text>
  <text x="350" y="325" fill="#111827" font-family="Arial" font-size="14">ana.oliveira@empresa.com</text>
  <text x="600" y="325" fill="#111827" font-family="Arial" font-size="14">Marketing</text>
  <text x="850" y="325" fill="#111827" font-family="Arial" font-size="14">Analista</text>
  <rect x="1050" y="310" width="30" height="20" rx="4" ry="4" fill="#3b82f6"/>
  <rect x="1090" y="310" width="30" height="20" rx="4" ry="4" fill="#ef4444"/>
  
  <!-- Pagination -->
  <rect x="500" y="360" width="200" height="30" rx="4" ry="4" fill="#ffffff"/>
  <text x="550" y="380" fill="#374151" font-family="Arial" font-size="14">1 2 3 4 5 ...</text>
</svg>
