<?xml version="1.0" encoding="UTF-8" standalone="no"?>
<svg xmlns="http://www.w3.org/2000/svg" width="800" height="400" viewBox="0 0 800 400">
  <rect width="800" height="400" fill="#e0f2fe"/>
  
  <!-- App Frame -->
  <rect x="10" y="10" width="780" height="380" rx="8" ry="8" fill="#ffffff" stroke="#e5e7eb" stroke-width="1"/>
  
  <!-- Top Navigation Bar -->
  <rect x="10" y="10" width="780" height="50" rx="8" ry="8" fill="#1e40af"/>
  <text x="30" y="40" fill="#ffffff" font-family="Arial" font-size="18" font-weight="bold">ERP Dembena</text>
  
  <!-- User Icon -->
  <circle cx="740" cy="35" r="15" fill="#60a5fa"/>
  <text x="740" y="40" fill="#ffffff" font-family="Arial" font-size="12" font-weight="bold" text-anchor="middle">JS</text>
  
  <!-- Left Sidebar Navigation -->
  <rect x="10" y="60" width="200" height="330" fill="#f1f5f9"/>
  
  <!-- Menu Items -->
  <rect x="20" y="80" width="180" height="40" rx="4" ry="4" fill="#f1f5f9"/>
  <text x="50" y="105" fill="#64748b" font-family="Arial" font-size="14">Dashboard</text>
  
  <rect x="20" y="130" width="180" height="40" rx="4" ry="4" fill="#f1f5f9"/>
  <text x="50" y="155" fill="#64748b" font-family="Arial" font-size="14">Vendas</text>
  
  <rect x="20" y="180" width="180" height="40" rx="4" ry="4" fill="#f1f5f9"/>
  <text x="50" y="205" fill="#64748b" font-family="Arial" font-size="14">Compras</text>
  
  <rect x="20" y="230" width="180" height="40" rx="4" ry="4" fill="#f1f5f9"/>
  <text x="50" y="255" fill="#64748b" font-family="Arial" font-size="14">Estoque</text>
  
  <!-- Highlighted HR Module -->
  <rect x="20" y="280" width="180" height="40" rx="4" ry="4" fill="#3b82f6"/>
  <text x="50" y="305" fill="#ffffff" font-family="Arial" font-size="14" font-weight="bold">Recursos Humanos</text>
  <!-- Arrow pointing to the HR menu -->
  <polygon points="210,300 230,285 230,315" fill="#ef4444" stroke="#ef4444" stroke-width="2"/>
  <text x="240" y="305" fill="#ef4444" font-family="Arial" font-size="14" font-weight="bold">Clique aqui</text>
  
  <rect x="20" y="330" width="180" height="40" rx="4" ry="4" fill="#f1f5f9"/>
  <text x="50" y="355" fill="#64748b" font-family="Arial" font-size="14">Finanças</text>
  
  <!-- Main Content Area - Blurred Background -->
  <rect x="220" y="60" width="570" height="330" fill="#f8fafc"/>
  
  <!-- Content Placeholder -->
  <rect x="240" y="80" width="530" height="50" rx="4" ry="4" fill="#f1f5f9"/>
  <rect x="260" y="95" width="200" height="20" rx="2" ry="2" fill="#e2e8f0"/>
  <rect x="500" y="95" width="100" height="20" rx="2" ry="2" fill="#e2e8f0"/>
  
  <!-- Card Placeholders -->
  <rect x="240" y="150" width="250" height="120" rx="8" ry="8" fill="#f1f5f9" stroke="#e2e8f0" stroke-width="1"/>
  <rect x="260" y="170" width="150" height="20" rx="2" ry="2" fill="#e2e8f0"/>
  <rect x="260" y="200" width="200" height="50" rx="2" ry="2" fill="#e2e8f0"/>
  
  <rect x="510" y="150" width="250" height="120" rx="8" ry="8" fill="#f1f5f9" stroke="#e2e8f0" stroke-width="1"/>
  <rect x="530" y="170" width="150" height="20" rx="2" ry="2" fill="#e2e8f0"/>
  <rect x="530" y="200" width="200" height="50" rx="2" ry="2" fill="#e2e8f0"/>
  
  <rect x="240" y="290" width="520" height="80" rx="8" ry="8" fill="#f1f5f9" stroke="#e2e8f0" stroke-width="1"/>
  <rect x="260" y="310" width="480" height="40" rx="2" ry="2" fill="#e2e8f0"/>
</svg>
