<?xml version="1.0" encoding="UTF-8" standalone="no"?>
<svg xmlns="http://www.w3.org/2000/svg" width="1200" height="400" viewBox="0 0 1200 400">
  <rect width="1200" height="400" fill="#a855f7"/>
  <rect x="20" y="20" width="1160" height="360" rx="8" ry="8" fill="#ffffff" stroke="#e5e7eb" stroke-width="1"/>
  
  <!-- Header -->
  <rect x="20" y="20" width="1160" height="60" rx="8" ry="8" fill="#f9fafb"/>
  <text x="50" y="55" fill="#111827" font-family="Arial" font-size="20" font-weight="bold">Avaliações de Desempenho</text>
  <rect x="900" y="30" width="150" height="40" rx="4" ry="4" fill="#a855f7"/>
  <text x="915" y="55" fill="#ffffff" font-family="Arial" font-size="14" font-weight="bold">+ Novo Ciclo</text>
  
  <!-- Tabs -->
  <rect x="50" y="100" width="1100" height="40" rx="4" ry="4" fill="#f3f4f6"/>
  <rect x="60" y="100" width="180" height="40" rx="4" ry="4" fill="#ffffff" stroke="#d1d5db" stroke-width="1"/>
  <text x="95" y="125" fill="#a855f7" font-family="Arial" font-size="14" font-weight="bold">Ciclos Ativos</text>
  
  <rect x="250" y="100" width="180" height="40" rx="4" ry="4" fill="#f3f4f6"/>
  <text x="285" y="125" fill="#6b7280" font-family="Arial" font-size="14">Histórico</text>
  
  <rect x="440" y="100" width="200" height="40" rx="4" ry="4" fill="#f3f4f6"/>
  <text x="470" y="125" fill="#6b7280" font-family="Arial" font-size="14">Configurações</text>
  
  <!-- Content -->
  <rect x="50" y="160" width="700" height="220" rx="4" ry="4" fill="#ffffff" stroke="#e5e7eb" stroke-width="1"/>
  
  <!-- Table Header -->
  <rect x="50" y="160" width="700" height="40" fill="#f9fafb" rx="4" ry="4"/>
  <text x="70" y="185" fill="#6b7280" font-family="Arial" font-size="12" font-weight="bold">CICLO</text>
  <text x="250" y="185" fill="#6b7280" font-family="Arial" font-size="12" font-weight="bold">PERÍODO</text>
  <text x="430" y="185" fill="#6b7280" font-family="Arial" font-size="12" font-weight="bold">PROGRESSO</text>
  <text x="600" y="185" fill="#6b7280" font-family="Arial" font-size="12" font-weight="bold">AÇÕES</text>
  
  <!-- Evaluation Row 1 -->
  <line x1="50" y1="200" x2="750" y2="200" stroke="#e5e7eb" stroke-width="1"/>
  <text x="70" y="230" fill="#111827" font-family="Arial" font-size="14">Avaliação Anual 2025</text>
  <text x="250" y="230" fill="#111827" font-family="Arial" font-size="14">Jan/2025 - Dez/2025</text>
  
  <!-- Progress bar -->
  <rect x="430" y="220" width="150" height="16" rx="8" ry="8" fill="#f3f4f6"/>
  <rect x="430" y="220" width="60" height="16" rx="8" ry="8" fill="#a855f7"/>
  <text x="590" y="230" fill="#6b7280" font-family="Arial" font-size="12">40%</text>
  
  <rect x="620" y="215" width="30" height="25" rx="4" ry="4" fill="#3b82f6"/>
  <rect x="660" y="215" width="30" height="25" rx="4" ry="4" fill="#10b981"/>
  
  <!-- Evaluation Row 2 -->
  <line x1="50" y1="250" x2="750" y2="250" stroke="#e5e7eb" stroke-width="1"/>
  <text x="70" y="280" fill="#111827" font-family="Arial" font-size="14">Revisão Semestral</text>
  <text x="250" y="280" fill="#111827" font-family="Arial" font-size="14">Abr/2025 - Set/2025</text>
  
  <!-- Progress bar -->
  <rect x="430" y="270" width="150" height="16" rx="8" ry="8" fill="#f3f4f6"/>
  <rect x="430" y="270" width="15" height="16" rx="8" ry="8" fill="#a855f7"/>
  <text x="590" y="280" fill="#6b7280" font-family="Arial" font-size="12">10%</text>
  
  <rect x="620" y="265" width="30" height="25" rx="4" ry="4" fill="#3b82f6"/>
  <rect x="660" y="265" width="30" height="25" rx="4" ry="4" fill="#10b981"/>
  
  <!-- Evaluation Row 3 -->
  <line x1="50" y1="300" x2="750" y2="300" stroke="#e5e7eb" stroke-width="1"/>
  <text x="70" y="330" fill="#111827" font-family="Arial" font-size="14">Avaliação de Projetos</text>
  <text x="250" y="330" fill="#111827" font-family="Arial" font-size="14">Mar/2025 - Maio/2025</text>
  
  <!-- Progress bar -->
  <rect x="430" y="320" width="150" height="16" rx="8" ry="8" fill="#f3f4f6"/>
  <rect x="430" y="320" width="120" height="16" rx="8" ry="8" fill="#a855f7"/>
  <text x="590" y="330" fill="#6b7280" font-family="Arial" font-size="12">80%</text>
  
  <rect x="620" y="315" width="30" height="25" rx="4" ry="4" fill="#3b82f6"/>
  <rect x="660" y="315" width="30" height="25" rx="4" ry="4" fill="#10b981"/>
  
  <!-- Sidebar Stats -->
  <rect x="770" y="160" width="380" height="220" rx="4" ry="4" fill="#ffffff" stroke="#e5e7eb" stroke-width="1"/>
  <text x="790" y="190" fill="#111827" font-family="Arial" font-size="16" font-weight="bold">Resumo do Ciclo Atual</text>
  
  <!-- Stats Graphics -->
  <rect x="790" y="210" width="340" height="1" stroke="#e5e7eb" stroke-width="1"/>
  
  <!-- Circular progress -->
  <circle cx="860" cy="270" r="50" fill="none" stroke="#f3f4f6" stroke-width="10"/>
  <path d="M 860,270 m -50,0 a 50,50 0 1,0 100,0 a 50,50 0 1,0 -100,0" fill="none" stroke="#a855f7" stroke-width="10" stroke-dasharray="220 314"/>
  <text x="835" y="275" fill="#111827" font-family="Arial" font-size="18" font-weight="bold">70%</text>
  <text x="810" y="330" fill="#6b7280" font-family="Arial" font-size="14" text-anchor="middle">Concluídas</text>
  
  <!-- Bar chart -->
  <rect x="940" y="220" width="40" height="100" fill="#f3f4f6"/>
  <rect x="940" y="270" width="40" height="50" fill="#a855f7"/>
  <text x="960" y="330" fill="#6b7280" font-family="Arial" font-size="12" text-anchor="middle">Excelente</text>
  
  <rect x="990" y="220" width="40" height="100" fill="#f3f4f6"/>
  <rect x="990" y="250" width="40" height="70" fill="#a855f7"/>
  <text x="1010" y="330" fill="#6b7280" font-family="Arial" font-size="12" text-anchor="middle">Bom</text>
  
  <rect x="1040" y="220" width="40" height="100" fill="#f3f4f6"/>
  <rect x="1040" y="290" width="40" height="30" fill="#a855f7"/>
  <text x="1060" y="330" fill="#6b7280" font-family="Arial" font-size="12" text-anchor="middle">Regular</text>
  
  <rect x="1090" y="220" width="40" height="100" fill="#f3f4f6"/>
  <rect x="1090" y="310" width="40" height="10" fill="#a855f7"/>
  <text x="1110" y="330" fill="#6b7280" font-family="Arial" font-size="12" text-anchor="middle">Insufic.</text>
</svg>
