<?xml version="1.0" encoding="UTF-8" standalone="no"?>
<svg xmlns="http://www.w3.org/2000/svg" width="1200" height="400" viewBox="0 0 1200 400">
  <rect width="1200" height="400" fill="#ec4899"/>
  <rect x="20" y="20" width="1160" height="360" rx="8" ry="8" fill="#ffffff" stroke="#e5e7eb" stroke-width="1"/>
  
  <!-- Header -->
  <rect x="20" y="20" width="1160" height="60" rx="8" ry="8" fill="#f9fafb"/>
  <text x="50" y="55" fill="#111827" font-family="Arial" font-size="20" font-weight="bold">Relatórios de RH</text>
  
  <!-- Date Filter -->
  <rect x="800" y="30" width="350" height="40" fill="#f9fafb"/>
  <rect x="810" y="35" width="150" height="30" rx="4" ry="4" fill="#ffffff" stroke="#d1d5db" stroke-width="1"/>
  <text x="820" y="55" fill="#374151" font-family="Arial" font-size="12">01/01/2025</text>
  <text x="975" y="55" fill="#374151" font-family="Arial" font-size="12">até</text>
  <rect x="1000" y="35" width="150" height="30" rx="4" ry="4" fill="#ffffff" stroke="#d1d5db" stroke-width="1"/>
  <text x="1010" y="55" fill="#374151" font-family="Arial" font-size="12">31/12/2025</text>
  
  <!-- Report Categories -->
  <rect x="50" y="100" width="200" height="260" rx="4" ry="4" fill="#f3f4f6"/>
  <rect x="50" y="100" width="200" height="40" rx="4" ry="4" fill="#f9fafb"/>
  <text x="70" y="125" fill="#111827" font-family="Arial" font-size="14" font-weight="bold">Categorias</text>
  
  <rect x="60" y="150" width="180" height="35" rx="4" ry="4" fill="#fdf2f8" stroke="#ec4899" stroke-width="1"/>
  <text x="80" y="173" fill="#be185d" font-family="Arial" font-size="14">Dashboard</text>
  
  <rect x="60" y="195" width="180" height="35" rx="4" ry="4" fill="#ffffff"/>
  <text x="80" y="218" fill="#374151" font-family="Arial" font-size="14">Funcionários</text>
  
  <rect x="60" y="240" width="180" height="35" rx="4" ry="4" fill="#ffffff"/>
  <text x="80" y="263" fill="#374151" font-family="Arial" font-size="14">Licenças</text>
  
  <rect x="60" y="285" width="180" height="35" rx="4" ry="4" fill="#ffffff"/>
  <text x="80" y="308" fill="#374151" font-family="Arial" font-size="14">Avaliações</text>
  
  <rect x="60" y="330" width="180" height="35" rx="4" ry="4" fill="#ffffff"/>
  <text x="80" y="353" fill="#374151" font-family="Arial" font-size="14">Folha de Pagamento</text>
  
  <!-- Main Content - Dashboard Reports -->
  <rect x="270" y="100" width="910" height="260" rx="4" ry="4" fill="#ffffff" stroke="#e5e7eb" stroke-width="1"/>
  
  <!-- Summary Cards -->
  <rect x="290" y="120" width="180" height="80" rx="8" ry="8" fill="#fdf2f8" stroke="#fbcfe8" stroke-width="1"/>
  <text x="310" y="145" fill="#be185d" font-family="Arial" font-size="14" font-weight="bold">Total Funcionários</text>
  <text x="310" y="175" fill="#111827" font-family="Arial" font-size="24" font-weight="bold">156</text>
  
  <rect x="490" y="120" width="180" height="80" rx="8" ry="8" fill="#f0f9ff" stroke="#bae6fd" stroke-width="1"/>
  <text x="510" y="145" fill="#0369a1" font-family="Arial" font-size="14" font-weight="bold">Taxa de Rotatividade</text>
  <text x="510" y="175" fill="#111827" font-family="Arial" font-size="24" font-weight="bold">4.2%</text>
  
  <rect x="690" y="120" width="180" height="80" rx="8" ry="8" fill="#f0fdf4" stroke="#bbf7d0" stroke-width="1"/>
  <text x="710" y="145" fill="#15803d" font-family="Arial" font-size="14" font-weight="bold">Taxa de Presença</text>
  <text x="710" y="175" fill="#111827" font-family="Arial" font-size="24" font-weight="bold">97.8%</text>
  
  <rect x="890" y="120" width="180" height="80" rx="8" ry="8" fill="#fff7ed" stroke="#fed7aa" stroke-width="1"/>
  <text x="910" y="145" fill="#c2410c" font-family="Arial" font-size="14" font-weight="bold">Custo Médio/Func.</text>
  <text x="910" y="175" fill="#111827" font-family="Arial" font-size="24" font-weight="bold">R$ 5.400</text>
  
  <!-- Charts -->
  <rect x="290" y="220" width="380" height="120" rx="8" ry="8" fill="#ffffff" stroke="#e5e7eb" stroke-width="1"/>
  <text x="310" y="245" fill="#111827" font-family="Arial" font-size="14" font-weight="bold">Distribuição por Departamento</text>
  
  <!-- Pie chart -->
  <circle cx="360" cy="280" r="40" fill="#ffffff"/>
  <path d="M 360,280 L 360,240 A 40,40 0 0,1 395,295 z" fill="#ec4899"/>
  <path d="M 360,280 L 395,295 A 40,40 0 0,1 340,320 z" fill="#3b82f6"/>
  <path d="M 360,280 L 340,320 A 40,40 0 0,1 320,260 z" fill="#10b981"/>
  <path d="M 360,280 L 320,260 A 40,40 0 0,1 360,240 z" fill="#f59e0b"/>
  
  <!-- Legend -->
  <rect x="430" y="255" width="12" height="12" fill="#ec4899"/>
  <text x="450" y="265" fill="#374151" font-family="Arial" font-size="12">RH (25%)</text>
  
  <rect x="430" y="275" width="12" height="12" fill="#3b82f6"/>
  <text x="450" y="285" fill="#374151" font-family="Arial" font-size="12">TI (30%)</text>
  
  <rect x="430" y="295" width="12" height="12" fill="#10b981"/>
  <text x="450" y="305" fill="#374151" font-family="Arial" font-size="12">Marketing (20%)</text>
  
  <rect x="430" y="315" width="12" height="12" fill="#f59e0b"/>
  <text x="450" y="325" fill="#374151" font-family="Arial" font-size="12">Vendas (25%)</text>
  
  <!-- Bar chart -->
  <rect x="690" y="220" width="380" height="120" rx="8" ry="8" fill="#ffffff" stroke="#e5e7eb" stroke-width="1"/>
  <text x="710" y="245" fill="#111827" font-family="Arial" font-size="14" font-weight="bold">Tendência de Ausências (Último Trimestre)</text>
  
  <!-- Axis -->
  <line x1="720" y1="310" x2="1030" y2="310" stroke="#e5e7eb" stroke-width="1"/>
  <line x1="720" y1="260" x2="720" y2="310" stroke="#e5e7eb" stroke-width="1"/>
  
  <!-- Bars -->
  <rect x="750" y="280" width="20" height="30" fill="#ec4899"/>
  <rect x="780" y="270" width="20" height="40" fill="#ec4899"/>
  <rect x="810" y="290" width="20" height="20" fill="#ec4899"/>
  <rect x="840" y="260" width="20" height="50" fill="#ec4899"/>
  <rect x="870" y="285" width="20" height="25" fill="#ec4899"/>
  <rect x="900" y="275" width="20" height="35" fill="#ec4899"/>
  <rect x="930" y="265" width="20" height="45" fill="#ec4899"/>
  <rect x="960" y="290" width="20" height="20" fill="#ec4899"/>
  <rect x="990" y="280" width="20" height="30" fill="#ec4899"/>
  
  <!-- Export Button -->
  <rect x="970" y="50" width="100" height="30" rx="4" ry="4" fill="#ec4899"/>
  <text x="995" y="70" fill="#ffffff" font-family="Arial" font-size="12" font-weight="bold">Exportar</text>
</svg>
